<svg width="112" height="160" xmlns="http://www.w3.org/2000/svg">
 <g>
  <title>background</title>
  <rect fill="none" id="canvas_background" height="162" width="114" y="-1" x="-1"/>
 </g>

 <g>
  <title>Layer 1</title>
  <path transform="rotate(45.67245101928711 56.20328140258795,115.04660034179686) " id="svg_3" fill="#FF7058" d="m112.162602,116.97176c-1.42508,-2.54065 -3.42058,-4.79899 -5.41579,-6.77526c-5.13073,-5.08131 -11.40174,-8.46894 -18.24289,-10.16262c-12.82681,-3.1053 -27.07897,0.28233 -37.05562,10.16262s-13.39696,23.99519 -10.26145,36.69873c1.71015,6.49293 5.13072,12.9856 10.26145,18.06691c1.99522,1.976 4.56058,3.95227 6.84114,5.36363c-14.8223,0.56465 -30.21447,-4.79899 -41.61621,-16.0909c-9.12144,-9.03359 -14.25216,-20.04318 -15.96231,-31.61742c-2.28029,-16.65555 3.1355,-33.87575 15.96231,-46.57902s30.49955,-18.06691 47.03201,-15.80858c11.6868,1.69368 23.08853,6.77526 31.9249,15.80858c11.6868,11.00986 17.1026,26.25405 16.53246,40.93333z" stroke="null"/>
  <path transform="rotate(45.67245101928711 56.54412460327151,80.14596557617186) " id="svg_4" fill="#F2F2F2" d="m112.718049,106.984419c-7.98115,-48.2727 -49.88244,-83.84213 -101.76037,-82.43077l-10.26145,0.28232l-0.28507,10.16262c-1.42508,51.37827 34.49027,92.87599 83.23242,100.78027l29.07447,-28.79444z" stroke="null"/>
  <g transform="rotate(45.67245101928711 56.44447326660158,80.05119323730467) " id="svg_5" stroke="null">
   <path id="svg_6" fill="#40596B" d="m61.448047,129.468422c7.12595,2.82298 14.53724,4.79898 22.23333,6.2106l28.78939,-28.51211c-1.14028,-7.62197 -3.42057,-14.96187 -6.271,-22.01919l-44.75172,44.3207z" stroke="null"/>
   <path id="svg_7" fill="#40596B" d="m44.915597,28.970742c-10.54652,-3.10531 -21.94826,-4.79926 -33.92013,-4.51693l-10.26145,0.28232l-0.28507,10.16262c-0.28507,11.85656 1.42508,23.14848 4.56058,33.59343l39.90607,-39.52144z" stroke="null"/>
  </g>
  <path transform="rotate(45.67245101928711 55.93363189697269,139.54394531249997) " id="svg_8" fill="#F2F2F2" d="m40.968928,153.235228c2.85044,0.56465 5.98594,0.84698 8.83638,1.1293l21.09303,-20.88988c-0.28507,-3.10531 -0.57014,-5.92828 -1.14028,-8.75126l-28.78913,28.51184z" stroke="null"/>
  <ellipse transform="rotate(45.67245101928711 56.54090881347659,68.17314147949219) " id="svg_9" fill="#40596B" ry="21.736588" rx="21.947979" cy="68.173145" cx="56.540908" stroke="null"/>
  <ellipse transform="rotate(45.67245101928711 56.54090881347659,68.17314147949219) " id="svg_10" fill="#84DBFF" ry="15.243925" rx="15.392174" cy="68.173145" cx="56.540908" stroke="null"/>
  <path transform="rotate(45.67245101928711 58.01548767089844,66.78387451171875) " id="svg_11" fill="#54C0EB" d="m48.323903,61.385022c5.4158,-5.36363 13.9671,-5.36363 19.38289,0c5.13073,5.08131 5.41579,13.26792 0.57014,18.63155c0.28507,-0.28232 0.57014,-0.28232 0.57014,-0.56464c5.98594,-5.92829 5.98594,-15.52626 0,-21.45454s-15.67724,-5.92828 -21.66318,0s-5.98594,15.52625 0,21.45453c0.28507,0.28233 0.57014,0.28233 0.57014,0.56465c-4.56085,-5.36363 -4.56085,-13.55024 0.56987,-18.63155z" stroke="null"/>
  <g transform="rotate(45.67245101928711 86.69086456298828,-11.015784263610833) " id="svg_12" stroke="null"/>
  <g transform="rotate(45.67245101928711 86.69086456298828,-11.015784263610833) " id="svg_13" stroke="null"/>
  <g transform="rotate(45.67245101928711 86.69086456298828,-11.015784263610833) " id="svg_14" stroke="null"/>
  <g transform="rotate(45.67245101928711 86.69086456298828,-11.015784263610833) " id="svg_15" stroke="null"/>
  <g transform="rotate(45.67245101928711 86.69086456298828,-11.015784263610833) " id="svg_16" stroke="null"/>
  <g transform="rotate(45.67245101928711 86.69086456298828,-11.015784263610833) " id="svg_17" stroke="null"/>
  <g transform="rotate(45.67245101928711 86.69086456298828,-11.015784263610833) " id="svg_18" stroke="null"/>
  <g transform="rotate(45.67245101928711 86.69086456298828,-11.015784263610833) " id="svg_19" stroke="null"/>
  <g transform="rotate(45.67245101928711 86.69086456298828,-11.015784263610833) " id="svg_20" stroke="null"/>
  <g transform="rotate(45.67245101928711 86.69086456298828,-11.015784263610833) " id="svg_21" stroke="null"/>
  <g transform="rotate(45.67245101928711 86.69086456298828,-11.015784263610833) " id="svg_22" stroke="null"/>
  <g transform="rotate(45.67245101928711 86.69086456298828,-11.015784263610833) " id="svg_23" stroke="null"/>
  <g transform="rotate(45.67245101928711 86.69086456298828,-11.015784263610833) " id="svg_24" stroke="null"/>
  <g transform="rotate(45.67245101928711 86.69086456298828,-11.015784263610833) " id="svg_25" stroke="null"/>
  <g transform="rotate(45.67245101928711 86.69086456298828,-11.015784263610833) " id="svg_26" stroke="null"/>
 </g>
</svg>