<svg width="501.85" height="501.85" xmlns="http://www.w3.org/2000/svg">

 <g>
  <title>background</title>
  <rect fill="none" id="canvas_background" height="402" width="582" y="-1" x="-1"/>
 </g>
 <g>
  <title>Layer 1</title>
  <g stroke="null" transform="rotate(45.67245101928711 244.9250030517578,273.4246215820313) " id="svg_27">
   <path stroke="null" id="svg_1" fill="#F8B64C" d="m317.334995,314.657119l-29.768012,-0.763627l0.804624,28.251281c0.804624,45.813243 41.03198,83.227319 89.304807,84.754573l29.768012,0.763627l-0.804624,-28.251281c-1.610018,-45.813243 -41.03275,-83.990946 -89.304807,-84.754573z"/>
   <path stroke="null" id="svg_2" fill="#FFD15C" d="m325.380466,329.9282l-20.917917,-0.763627l0.804624,19.852113c0.804624,32.833044 29.768012,60.320697 64.36377,61.084324l20.917917,0.763627l-0.804624,-19.852113c-0.804624,-32.833044 -29.768782,-60.320697 -64.36377,-61.084324z"/>
   <path stroke="null" id="svg_3" fill="#FF7058" d="m438.016293,312.366238c-4.022351,-6.871913 -9.654719,-12.9802 -15.286318,-18.32559c-14.481694,-13.743827 -32.181885,-22.906622 -51.491324,-27.487654c-36.204235,-8.399168 -76.431591,0.763627 -104.591125,27.487654s-37.813484,64.901729 -28.963388,99.262027c4.826975,17.561962 14.481694,35.123194 28.963388,48.867021c5.631599,5.344659 12.872446,10.690049 19.309439,14.507454c-41.836604,1.527254 -85.281687,-12.9802 -117.463571,-43.522362c-25.745662,-24.433876 -40.227356,-54.212411 -45.054331,-85.5182c-6.436223,-45.049616 8.850095,-91.626487 45.054331,-125.986054s86.086311,-48.867021 132.74989,-42.758735c32.986509,4.581032 65.168394,18.32559 90.109431,42.758735c32.986509,29.779266 48.272827,71.011477 46.663579,110.715703z"/>
   <path stroke="null" id="svg_4" fill="#F2F2F2" d="m368.825549,313.129865c-22.527165,-130.567086 -140.795361,-226.774604 -287.22309,-222.9572l-28.963388,0.763627l-0.804624,27.487654c-4.022351,138.966984 97.350278,251.209211 234.927143,272.588579l82.06396,-77.88266z"/>
   <g stroke="null" id="svg_5">
    <path stroke="null" id="svg_6" fill="#40596B" d="m224.007067,374.214189c20.113293,7.635541 41.03198,12.9802 62.754521,16.798335l81.259336,-77.119033c-3.218496,-20.61574 -9.654719,-40.468584 -17.700191,-59.55707l-126.313667,119.877767z"/>
    <path stroke="null" id="svg_7" fill="#40596B" d="m177.343488,102.389969c-29.768012,-8.399168 -61.949897,-12.98093 -95.74103,-12.217303l-28.963388,0.763627l-0.804624,27.487654c-0.804624,32.069416 4.022351,62.611579 12.872446,90.86286l112.636597,-106.896837z"/>
   </g>
   <path stroke="null" id="svg_8" fill="#F2F2F2" d="m286.761589,391.012525c8.045471,1.527254 16.895566,2.290881 24.941038,3.054509l59.536025,-56.502562c-0.804624,-8.399168 -1.609248,-16.034708 -3.218496,-23.670249l-81.258566,77.118302z"/>
   <ellipse stroke="null" id="svg_9" fill="#40596B" ry="58.792712" rx="61.949127" cy="217.915427" cx="186.091177"/>
   <ellipse stroke="null" id="svg_10" fill="#84DBFF" ry="41.231481" rx="43.445082" cy="217.915427" cx="186.091177"/>
   <path stroke="null" id="svg_11" fill="#54C0EB" d="m158.839444,197.83386c15.286318,-14.507454 39.422732,-14.507454 54.70905,0c14.481694,13.743827 15.286318,35.886821 1.609248,50.394275c0.804624,-0.763627 1.609248,-0.763627 1.609248,-1.527254c16.895566,-16.034708 16.895566,-41.995108 0,-58.029816s-44.249707,-16.034708 -61.145273,0s-16.895566,41.995108 0,58.029816c0.804624,0.763627 1.609248,0.763627 1.609248,1.527254c-12.873216,-14.507454 -12.873216,-36.650449 1.608478,-50.394275z"/>
   <g stroke="null" id="svg_12"/>
   <g stroke="null" id="svg_13"/>
   <g stroke="null" id="svg_14"/>
   <g stroke="null" id="svg_15"/>
   <g stroke="null" id="svg_16"/>
   <g stroke="null" id="svg_17"/>
   <g stroke="null" id="svg_18"/>
   <g stroke="null" id="svg_19"/>
   <g stroke="null" id="svg_20"/>
   <g stroke="null" id="svg_21"/>
   <g stroke="null" id="svg_22"/>
   <g stroke="null" id="svg_23"/>
   <g stroke="null" id="svg_24"/>
   <g stroke="null" id="svg_25"/>
   <g stroke="null" id="svg_26"/>
  </g>
 </g>
</svg>